<svg width="358" height="357" viewBox="0 0 358 357" fill="none" xmlns="http://www.w3.org/2000/svg">
<path d="M189.703 2.62285C181.627 -0.0819668 176.685 -0.0819668 168.609 2.62285C148.907 9.22129 149.761 50.9789 155.85 92.1781C140.435 53.4891 120.214 16.9443 99.8617 21.1268C91.5189 22.8413 87.2446 25.3219 81.6172 31.7152C68.0838 47.0905 88.9802 81.9905 114.433 114.188C82.1798 88.8058 47.2339 67.9861 31.8884 81.5533C25.5075 87.1947 23.0362 91.4745 21.3401 99.821C17.2304 120.044 53.2953 140.049 91.7239 155.339C50.7992 149.364 9.56341 148.654 3.00988 168.222C0.305057 176.298 0.305057 181.24 3.00988 189.316C9.5634 208.884 50.7992 208.174 91.7239 202.199C53.2953 217.489 17.2303 237.494 21.3399 257.717C23.0361 266.064 25.5073 270.343 31.8882 275.985C47.2336 289.552 82.1789 268.733 114.432 243.351C88.9793 275.548 68.0834 310.448 81.6167 325.823C87.2441 332.216 91.5184 334.697 99.8612 336.411C120.214 340.594 140.435 304.048 155.85 265.358C149.761 306.558 148.906 348.317 168.609 354.915C176.685 357.62 181.627 357.62 189.703 354.915C209.406 348.316 208.551 306.556 202.462 265.356C217.876 304.046 238.098 340.594 258.451 336.411C266.794 334.697 271.069 332.216 276.696 325.823C290.229 310.448 269.333 275.548 243.881 243.351C276.134 268.733 311.079 289.552 326.424 275.985C332.805 270.343 335.277 266.064 336.973 257.717C341.082 237.494 305.018 217.489 266.589 202.199C307.513 208.174 348.749 208.884 355.302 189.316C358.007 181.24 358.007 176.298 355.302 168.222C348.749 148.654 307.513 149.364 266.589 155.339C305.017 140.049 341.082 120.044 336.973 99.821C335.276 91.4745 332.805 87.1947 326.424 81.5533C311.079 67.9861 276.133 88.8058 243.88 114.188C269.332 81.9905 290.229 47.0905 276.695 31.7152C271.068 25.3219 266.794 22.8413 258.451 21.1268C238.098 16.9442 217.877 53.4906 202.462 92.1804C208.551 50.9805 209.406 9.22141 189.703 2.62285Z" fill="#F5BD33"/>
</svg>
