<svg width="714" height="358" viewBox="0 0 714 358" fill="none" xmlns="http://www.w3.org/2000/svg">
<path fill-rule="evenodd" clip-rule="evenodd" d="M356.958 114.383C485.38 114.383 589.487 218.49 589.487 346.912H530.095C530.095 251.291 452.579 173.775 356.958 173.775C261.337 173.775 183.821 251.291 183.821 346.912H124.429C124.429 218.49 228.536 114.383 356.958 114.383Z" fill="#336BB7"/>
<path fill-rule="evenodd" clip-rule="evenodd" d="M356.958 8.97412C543.596 8.97414 694.896 160.274 694.896 346.912H635.504C635.504 193.075 510.795 68.3657 356.958 68.3657C203.121 68.3657 78.4114 193.075 78.4114 346.912H19.0198C19.0198 160.274 170.32 8.9741 356.958 8.97412Z" fill="#336BB7"/>
<path fill-rule="evenodd" clip-rule="evenodd" d="M356.958 215.001C429.81 215.001 488.869 274.06 488.869 346.912H429.477C429.477 306.861 397.009 274.393 356.958 274.393C316.907 274.393 284.439 306.861 284.439 346.912H225.047C225.047 274.06 284.106 215.001 356.958 215.001Z" fill="#336BB7"/>
</svg>
