<svg width="358" height="357" viewBox="0 0 358 357" fill="none" xmlns="http://www.w3.org/2000/svg">
<path d="M128.182 16.1782C213.244 2.19866 272.591 88.8562 272.591 183.123C272.591 277.39 213.244 364.048 128.182 350.068C112.335 347.464 100.214 345.888 89.1777 337.04C84.5186 333.306 84.5186 326.216 89.1777 322.481L93.1626 319.287C99.8662 313.913 99.8662 303.712 93.1626 298.338C86.459 292.965 86.459 282.764 93.1626 277.39C99.8662 272.016 99.8662 261.816 93.1626 256.442C86.459 251.068 86.459 240.868 93.1626 235.494C99.8662 230.12 99.8662 219.919 93.1626 214.546C86.459 209.172 86.459 198.971 93.1626 193.597C99.8662 188.224 99.8662 178.023 93.1626 172.649C86.459 167.275 86.459 157.075 93.1626 151.701C99.8662 146.327 99.8662 136.127 93.1626 130.753C86.459 125.379 86.459 115.178 93.1626 109.805C99.8662 104.431 99.8662 94.2302 93.1626 88.8563C86.459 83.4825 86.459 73.2819 93.1626 67.9081C99.8662 62.5343 99.8662 52.3337 93.1626 46.9599L89.1777 43.7655C84.5186 40.0306 84.5186 32.941 89.1777 29.2061C100.214 20.3588 112.335 18.7825 128.182 16.1782Z" fill="#F5BD33"/>
</svg>
